<svg width="109" height="46" viewBox="0 0 109 46" fill="none" xmlns="http://www.w3.org/2000/svg">
<g clip-path="url(#clip0_4_2)">
<path d="M28.5739 32.9728C28.1653 30.8542 27.7042 28.744 27.3665 26.6141C27.1417 25.1964 26.3821 24.8803 25.0898 25.0818C21.6955 25.6111 18.292 26.0811 14.9217 26.5704C14.0442 28.6538 13.193 30.6751 12.1811 33.0778C12.2527 33.0702 11.7432 33.1246 11.4021 33.1611C10.8734 35.3467 10.3722 37.4189 9.96457 39.104C9.11002 39.9716 8.45815 40.6333 7.80628 41.2951C7.92887 41.4598 8.05145 41.6245 8.17403 41.7892C7.52685 41.8773 6.87966 41.9654 6.49188 42.0181C5.54551 43.2678 4.72693 44.3488 3.72025 45.6781C2.89974 45.6781 1.69932 45.6781 0.528997 45.6781C-0.350733 42.5056 -0.350733 42.5056 2.23091 42.1786C2.71793 40.5745 3.18045 39.0511 3.67392 37.4257C4.297 37.3634 4.95422 37.2977 5.74032 37.2191C5.74032 36.4488 5.74032 35.6665 5.74032 34.7347C6.58076 34.7736 7.28824 34.8063 7.85552 34.8325C8.70379 32.3527 9.52456 29.9533 10.5175 27.0504C9.70151 27.2209 9.03516 27.1971 8.5603 27.487C6.18896 28.9345 4.32156 27.9628 4.13278 25.0002C4.61745 24.9232 5.11422 24.8443 5.70406 24.7505C5.64581 24.1396 5.59234 23.5787 5.52408 22.8628C6.20189 22.9181 6.71938 22.9509 7.23464 23.0049C7.77191 23.0612 8.30705 23.138 8.82681 23.2038C9.87643 20.2357 12.4067 22.2843 14.2578 21.5061C14.3147 20.96 14.3818 20.316 14.4537 19.6256C17.3973 19.6094 15.9323 17.3037 16.4671 15.7936C16.903 15.7612 17.4514 15.7205 17.9798 15.6812C18.5314 13.6298 19.0703 11.6261 19.6736 9.38233C19.8611 9.35956 20.442 9.28906 21.4527 9.16637C20.8962 7.60976 20.3998 6.22105 19.8624 4.71782C20.4811 4.61034 20.9891 4.52211 21.5696 4.42127C21.5696 3.67416 21.5696 2.96524 21.5696 2.1435C22.4371 2.10498 23.2296 2.0698 24.1054 2.03092C24.0693 1.39092 24.0367 0.813414 23.9907 0C25.1202 0.189922 26.157 0.364245 27.3066 0.557547C27.3066 1.09406 27.501 1.92632 27.2757 2.06208C25.5429 3.10624 26.4538 4.44638 26.6697 5.77211C27.0986 8.40498 27.3324 11.0713 27.8116 13.6937C28.1896 15.7624 28.8145 17.786 29.3918 20.0757C30.0392 20.0264 30.8795 19.9974 31.7102 19.8927C34.3165 19.5643 34.702 19.8792 34.719 22.4344C34.7217 22.8404 34.7216 23.2464 34.6437 23.9289C33.4608 24.352 32.3571 24.4987 30.6324 24.7279C31.6737 26.9838 32.5845 28.9569 33.4953 30.93C33.4875 31.0009 33.4796 31.0719 33.2849 31.2462C32.1157 31.8047 31.1334 32.2597 30.1512 32.7147C30.2139 32.8729 30.2766 33.0311 30.3393 33.1893C29.7508 33.1171 29.1624 33.045 28.5739 32.9728ZM23.3009 14.4947C22.7518 14.4014 21.8066 14.0845 21.7138 14.2488C20.5549 16.3019 19.5195 18.4248 18.2036 21.0206C20.8343 20.7628 22.806 20.5695 25.0944 20.3453C24.4922 18.3343 23.9606 16.559 23.3009 14.4947Z" fill="black"/>
<path d="M83.0011 28.1678C83.525 27.5665 84.251 27.0448 84.5264 26.3456C84.9624 25.2389 85.1645 24.0236 85.3443 22.8358C85.6987 20.4961 85.9698 18.1437 86.2957 15.6403C86.7632 15.5189 87.3186 15.3747 87.9404 15.2132C88.121 13.5343 88.3011 11.8594 88.5024 9.98698C88.8054 9.89818 89.2898 9.75619 89.8604 9.58897C89.8069 8.8603 89.7539 8.13942 89.6828 7.17092C91.2396 7.17092 92.7444 7.17092 94.3187 7.17092C94.3187 6.33245 94.3187 5.73972 94.3187 5.01487C95.3916 4.73947 95.968 4.77581 96.3463 6.22094C97.6369 11.1524 99.0892 16.0457 100.626 20.9072C101.799 24.617 103.194 28.2565 104.542 32.072C104.748 32.072 105.276 32.072 105.949 32.072C106.038 32.7279 106.125 33.362 106.223 34.0836C107.064 34.1337 107.923 34.1849 108.868 34.2411C109.105 35.7434 109.255 36.5618 107.185 37.2265C105.95 37.6232 104.875 38.9157 103.077 38.5088C102.98 37.9677 102.868 37.35 102.741 36.6414C101.977 36.6414 101.249 36.6414 100.577 36.6414C100.457 36.4265 100.327 36.3048 100.34 36.2011C100.914 31.6498 98.0472 28.2271 96.3902 24.4274C96.1245 23.8183 94.9809 23.218 94.2625 23.2402C88.949 23.4044 89.3828 22.0463 87.8073 27.9936C87.576 28.8667 87.0166 29.6529 86.3318 30.505C85.0367 29.7432 84.0189 28.9555 83.0011 28.1678ZM92.2868 14.2674C91.5492 15.7988 90.8116 17.3301 90.0741 18.8614C90.2718 19.0619 90.4695 19.2624 90.6672 19.4629C91.6207 19.0803 93.3439 18.7618 93.3821 18.303C93.4929 16.9731 92.9269 15.5868 92.2868 14.2674Z" fill="black"/>
<path d="M36.7345 21.6133C36.5829 19.4277 36.4312 17.2421 36.3914 14.8065C36.4338 14.3333 36.3645 14.1101 36.2951 13.8868C36.0498 11.8185 35.8045 9.75013 35.5396 7.51603C37.1288 7.51603 38.5732 7.51603 40.159 7.51603C40.3742 9.80785 40.5912 12.1183 40.8353 14.7174C44.2342 12.6151 46.7083 10.186 47.4766 6.29944C49.2403 6.60251 51.0063 6.90599 53.4423 7.3246C52.5017 8.64929 51.7162 9.7389 50.9482 10.8407C49.3678 13.1083 47.7399 15.3468 46.2727 17.6857C45.9991 18.1217 46.1811 19.1011 46.5017 19.6098C48.4077 22.6338 50.4463 25.574 52.3669 28.5892C52.7874 29.2494 52.9099 30.0993 53.2107 30.9823C51.4117 30.9823 50.0059 31.005 48.602 30.9635C48.3139 30.955 47.9396 30.7796 47.7635 30.5563C46.406 28.8343 45.1801 26.9972 43.7092 25.3818C43.1604 24.779 42.424 23.2141 40.8687 24.7953C38.7671 25.0454 37.1718 24.9017 37.2646 22.4159C37.2743 22.1553 36.92 21.8811 36.7345 21.6133Z" fill="black"/>
<path d="M82.8747 28.1051C84.0189 28.9554 85.0367 29.7431 86.1998 30.5518C85.4742 30.7631 84.6033 30.9534 83.5233 30.9692C83.2031 30.7102 83.092 30.6258 82.9809 30.5413C81.4138 30.5413 79.8467 30.5413 78.313 30.5413C77.0682 26.7431 71.8606 22.9203 67.4655 22.6719C66.8224 22.0286 66.5208 21.3885 66.1025 20.8368C65.7543 20.3776 65.329 19.8454 64.8263 19.675C64.3978 19.5298 63.8104 19.8539 63.2933 19.9704C63.2284 17.1399 63.1826 14.3087 63.0856 11.4793C63.0607 10.7512 62.8748 10.0286 62.7356 9.00081C62.7024 8.52196 62.6966 8.3458 62.6907 8.16964C64.7339 7.91924 66.7772 7.66885 69.0025 7.61688C69.4556 9.13054 69.7268 10.4458 69.8543 11.8218C67.1836 12.829 67.0616 13.1563 67.8634 17.2579C69.4893 17.0756 71.1395 16.8906 72.9103 16.7586C73.3659 16.6269 73.7011 16.4422 74.1175 16.1515C74.5361 15.9333 74.8734 15.8212 75.2413 15.8849C75.4046 17.3504 75.5373 18.6401 75.67 19.9297C75.6729 20.1089 75.6758 20.2882 75.705 20.7443C76.1091 21.2212 76.4869 21.4212 76.8646 21.6213C76.8646 21.6213 76.8923 21.6083 76.9164 21.7543C77.2228 22.0627 77.5051 22.225 77.7874 22.3873C79.4411 24.2723 81.0947 26.1574 82.8747 28.1051Z" fill="black"/>
<path d="M58.5061 17.9487C58.5166 22.3286 58.5166 26.5056 58.5166 30.8214C57.0485 30.8214 55.9412 30.8214 54.4503 30.8214C54.4503 26.169 54.4176 21.5385 54.4637 16.9088C54.4878 14.4801 54.6391 12.0524 54.7527 9.62515C54.883 6.83716 55.9363 6.35239 58.8695 7.47428C58.7424 10.9649 58.619 14.3553 58.5061 17.9487Z" fill="black"/>
<path d="M69.9979 11.761C69.7267 10.4458 69.4556 9.1306 69.1848 7.65181C72.2652 7.59712 75.3744 7.48632 78.4153 7.88974C80.5519 8.17317 82.1773 9.51815 82.658 11.9191C83.1265 14.259 82.375 16.0752 80.4923 17.3535C79.0709 18.3185 77.4759 19.0281 75.8141 19.8905C75.5373 18.6401 75.4046 17.3505 75.344 15.7942C75.92 14.8353 76.8927 14.0709 76.8004 13.4704C76.7013 12.8264 75.6574 11.9684 74.9249 11.8549C73.3163 11.6057 71.6441 11.7672 69.9979 11.761Z" fill="black"/>
<path d="M63.2376 20.1434C63.8104 19.854 64.3978 19.5299 64.8263 19.6751C65.329 19.8454 65.7543 20.3777 66.1025 20.8369C66.5208 21.3885 66.8224 22.0287 67.2891 22.693C66.9031 24.9146 66.586 27.1389 65.8488 29.2141C65.1509 31.179 63.3828 30.798 61.8878 30.5234C62.3273 27.057 62.7546 23.6866 63.2376 20.1434Z" fill="black"/>
<path d="M28.5328 33.1229C29.1624 33.045 29.7508 33.1172 30.3392 33.1893C30.2765 33.0311 30.2139 32.8729 30.1512 32.7147C31.1334 32.2597 32.1157 31.8047 33.2593 31.3502C33.4614 31.413 33.5019 31.4753 33.5278 31.7998C33.7442 32.7445 32.636 33.9335 34.2772 34.0829C34.5624 34.2974 35.0685 34.4861 35.097 34.7305C35.2896 36.3837 35.3812 38.0487 35.5254 39.9765C34.7967 39.9765 34.0794 39.9985 33.3639 39.9725C30.7944 39.8792 30.1881 39.2543 30.1839 36.7303C30.1831 36.26 30.187 35.7897 30.1766 34.9947C29.642 34.5099 29.1195 34.3497 28.597 34.1895C28.5619 33.884 28.5268 33.5785 28.5328 33.1229Z" fill="black"/>
<path d="M36.6653 21.7411C36.9199 21.8812 37.2743 22.1554 37.2646 22.4159C37.1718 24.9017 38.7671 25.0455 40.7966 24.9126C40.1184 26.7704 39.2455 28.6088 38.3075 30.5843C37.2712 30.5843 35.9432 30.5843 34.3978 30.4161C33.1321 29.3736 33.2786 28.584 34.0639 27.5109C34.7876 26.5219 35.1337 25.2564 35.6461 24.1128C35.9628 23.3648 36.2794 22.6169 36.6653 21.7411Z" fill="black"/>
<path d="M28.6029 34.3337C29.1195 34.3497 29.642 34.5098 30.1944 34.8105C29.6858 34.7933 29.1473 34.6356 28.6029 34.3337Z" fill="black"/>
<path d="M76.8144 21.5064C76.4869 21.4213 76.1091 21.2212 75.7184 20.8807C76.0583 20.9573 76.4112 21.1745 76.8144 21.5064Z" fill="black"/>
<path d="M36.2525 13.9605C36.3645 14.1101 36.4338 14.3334 36.4216 14.6207C36.2966 14.4679 36.2532 14.251 36.2525 13.9605Z" fill="black"/>
<path d="M77.7453 22.2709C77.5051 22.225 77.2228 22.0627 76.9145 21.7695C77.16 21.8106 77.4316 21.9825 77.7453 22.2709Z" fill="black"/>
<path d="M62.5739 8.19226C62.6966 8.34582 62.7024 8.52198 62.7087 8.8303C62.6252 8.71326 62.5411 8.46406 62.5739 8.19226Z" fill="black"/>
<path d="M82.9786 30.6706C83.092 30.6259 83.2031 30.7103 83.3599 30.8905C83.2624 30.9241 83.1194 30.862 82.9786 30.6706Z" fill="black"/>
<path d="M72.9103 16.7586C73.1134 16.5584 73.437 16.4112 73.8984 16.2607C73.7011 16.4422 73.366 16.6269 72.9103 16.7586Z" fill="black"/>
</g>
<defs>
<clipPath id="clip0_4_2">
<rect width="109" height="46" fill="white"/>
</clipPath>
</defs>
</svg>
